<?xml version="1.0" encoding="utf-8"?>
<!-- Generator: Adobe Illustrator 19.1.0, SVG Export Plug-In . SVG Version: 6.00 Build 0)  -->
<svg version="1.1" id="Layer_1" xmlns="http://www.w3.org/2000/svg" xmlns:xlink="http://www.w3.org/1999/xlink" x="0px" y="0px"
	 width="494.9px" height="45.8px" viewBox="384 274.8 494.9 45.8" style="enable-background:new 384 274.8 494.9 45.8;"
	 xml:space="preserve">
<g>
	<path d="M845.2,319.5h21.2v-0.4c-0.3,0-0.7-0.1-1.2-0.1c-0.5-0.1-1-0.1-1.6-0.2c-0.5-0.1-1-0.2-1.5-0.3c-0.5-0.1-0.8-0.2-1-0.3
		c-0.7-0.3-1.2-0.7-1.5-1.3c-0.3-0.5-0.4-1.2-0.4-1.9v-9.7c0-0.8,0-1.4,0-2s0.1-1.1,0.2-1.6c0.1-0.5,0.3-1,0.5-1.6
		c0.2-0.5,0.6-1.2,1-1.9c0.9-1.6,1.8-3.2,2.7-4.9c0.9-1.7,1.9-3.3,2.8-4.8c0.9-1.6,1.8-3,2.6-4.4s1.6-2.6,2.4-3.6
		c0.3-0.4,0.6-0.8,0.8-1.1c0.3-0.3,0.5-0.6,0.8-0.8c0.3-0.2,0.6-0.5,0.9-0.7c0.3-0.2,0.7-0.4,1.1-0.7c0.4-0.2,0.8-0.4,1.4-0.6
		c0.6-0.2,2.1-0.3,2.5-0.3v-0.5h-16.4v0.5c0.7,0,1.5,0.1,2.4,0.3s1.7,0.3,2.4,0.5s1.4,0.5,1.9,0.9s0.7,0.8,0.7,1.3
		c0,0.4-0.2,1.1-0.7,2.1s-1.1,2.3-2,3.9c-1,1.9-2.3,4.1-3.7,6.5s-3,5-4.5,7.6c-0.8-1.3-1.5-2.7-2.2-4s-1.5-2.6-2.1-3.8
		c-0.7-1.2-1.3-2.4-2-3.6c-0.6-1.1-1.2-2.2-1.7-3.2c-1-1.8-1.7-3.2-2.3-4.4c-0.6-1.1-0.8-1.8-0.8-2c0-0.4,0.2-0.7,0.7-1
		s1-0.5,1.7-0.7s1.4-0.3,2.1-0.4c0.7-0.1,1.4-0.1,1.9-0.2v-0.5h-20.6v0.5c0.3,0,0.7,0.1,1,0.1c0.4,0,0.7,0.1,1.1,0.2
		c0.4,0.1,0.7,0.2,1.1,0.3c0.4,0.1,0.7,0.3,1,0.4c0.8,0.5,1.5,1.1,2.1,1.8c0.6,0.8,1.2,1.6,1.7,2.6c0.7,1.2,1.4,2.4,2.2,3.7
		c0.8,1.3,1.5,2.7,2.3,4.1s1.6,2.9,2.3,4.3c0.8,1.5,1.5,2.9,2.3,4.3c0.5,1,0.9,1.8,1.2,2.6c0.3,0.8,0.5,1.5,0.5,2.2v12.1
		c0,0.7-0.1,1.3-0.4,1.9c-0.3,0.6-0.8,1-1.6,1.3c-0.2,0.1-0.5,0.2-1,0.2c-0.5,0.1-1,0.2-1.5,0.2c-0.5,0.1-1,0.1-1.5,0.2
		s-0.9,0.1-1.2,0.1v0.8H845.2z M773.8,319.5h17.7v-0.4c-0.3,0-0.7-0.1-1.4-0.1c-0.6-0.1-1.3-0.2-2-0.3c-0.7-0.1-1.3-0.3-2-0.4
		c-0.6-0.2-1.1-0.4-1.3-0.6c-0.4-0.3-0.7-0.7-0.9-1.1c-0.3-0.4-0.5-1-0.7-1.6c-0.2-0.7-0.3-1.4-0.4-2.3c-0.1-0.9-0.1-2-0.1-3.2
		v-29.6l14.1,30.2c0.3,0.7,0.6,1.4,0.9,2.2c0.3,0.8,0.6,1.6,0.9,2.3c0.3,0.8,0.6,1.5,0.9,2.3c0.3,0.7,0.5,1.4,0.7,2h0.7l16.8-39.7
		V315c0,0.7-0.2,1.4-0.5,1.9s-0.8,1-1.6,1.4c-0.2,0.1-0.6,0.2-1.1,0.3c-0.5,0.1-1,0.2-1.6,0.3c-0.6,0.1-1.1,0.1-1.7,0.2
		c-0.5,0-0.9,0.1-1.2,0.1v0.4h21.1v-0.4c-0.3,0-0.7-0.1-1.1-0.1c-0.5-0.1-0.9-0.1-1.4-0.2s-0.9-0.2-1.4-0.3
		c-0.4-0.1-0.7-0.2-0.9-0.3c-0.7-0.4-1.2-0.8-1.5-1.3s-0.4-1.1-0.4-1.8v-34.7c0-0.7,0.1-1.4,0.4-1.9c0.3-0.6,0.8-1,1.6-1.2
		c0.3-0.1,0.6-0.2,1.1-0.3c0.4-0.1,0.9-0.2,1.3-0.2c0.5-0.1,0.9-0.1,1.3-0.2c0.4-0.1,0.8-0.1,1.1-0.1v-0.5h-13.9
		c0,0.2-0.1,0.5-0.1,0.8c-0.1,0.4-0.2,0.8-0.3,1.3s-0.3,1-0.5,1.6s-0.4,1.2-0.7,1.7L804,309.3l-15.9-33.5h-14v0.5
		c0.4,0,0.9,0.1,1.4,0.1c0.5,0.1,1,0.1,1.5,0.2s1,0.3,1.5,0.5s0.9,0.5,1.3,0.8c0.6,0.5,1.1,1.2,1.5,2.1c0.3,0.9,0.5,2,0.5,3.3v26.1
		c0,1.2,0,2.3-0.1,3.2c-0.1,0.9-0.2,1.7-0.4,2.4c-0.2,0.7-0.4,1.2-0.7,1.7c-0.3,0.4-0.6,0.8-1,1.1s-0.8,0.5-1.4,0.6
		c-0.6,0.2-1.1,0.3-1.7,0.4c-0.6,0.1-1.1,0.2-1.6,0.2c-0.5,0.1-0.9,0.1-1.2,0.1v0.4H773.8z M735.3,319.5h36.6l0.8-12.4h-0.6
		c-0.1,0.3-0.3,0.7-0.5,1.3c-0.2,0.5-0.5,1.1-0.9,1.8c-0.3,0.6-0.7,1.3-1.1,2c-0.4,0.7-0.8,1.4-1.2,2s-0.8,1.2-1.2,1.8
		c-0.4,0.5-0.7,1-1,1.3c-0.4,0.4-0.9,0.7-1.6,0.9c-0.7,0.2-1.4,0.3-2.3,0.4c-0.9,0.1-1.8,0.1-2.9,0.1h-3.2c-1.6,0-2.9-0.1-3.9-0.2
		s-1.8-0.4-2.3-0.8c-0.6-0.4-0.9-1-1.1-1.7c-0.2-0.8-0.3-1.8-0.3-3.1v-32.8c0-0.7,0.1-1.4,0.4-1.9c0.3-0.6,0.8-1,1.6-1.2
		c0.3-0.1,0.6-0.2,1-0.2c0.4-0.1,0.8-0.1,1.3-0.2c0.4-0.1,0.9-0.1,1.3-0.1c0.4,0,0.8-0.1,1.1-0.1v-0.5h-20v0.5c0.3,0,0.6,0.1,1,0.1
		c0.4,0.1,0.8,0.1,1.3,0.2c0.4,0.1,0.9,0.2,1.3,0.3c0.4,0.1,0.8,0.2,1,0.3c0.8,0.4,1.3,0.8,1.6,1.3s0.4,1.2,0.4,1.9v34.7
		c0,0.7-0.1,1.4-0.4,1.9c-0.3,0.5-0.8,0.9-1.6,1.2c-0.2,0.1-0.6,0.2-1,0.3s-0.8,0.2-1.3,0.2c-0.5,0.1-0.9,0.1-1.3,0.2
		c-0.4,0-0.8,0.1-1.1,0.1v0.4H735.3z M700.4,302.5l7.5-19.2l7.6,19.2H700.4z M687.5,319.5h16.3v-0.4c-0.6,0-1.3-0.1-2.2-0.2
		s-1.7-0.2-2.6-0.4c-0.8-0.2-1.6-0.5-2.2-0.8c-0.6-0.4-0.9-0.8-0.9-1.4c0-0.5,0.1-1,0.3-1.7c0.2-0.7,0.4-1.4,0.6-2.1
		c0.1-0.5,0.3-1.1,0.6-1.8c0.2-0.7,0.5-1.5,0.8-2.3s0.6-1.7,0.9-2.5c0.3-0.9,0.6-1.6,0.9-2.4h15.9l4.6,11.7c0.1,0.2,0.2,0.5,0.2,0.9
		c0.1,0.3,0.1,0.6,0,0.9c-0.1,0.4-0.4,0.7-0.9,1s-1.1,0.5-1.8,0.7c-0.7,0.2-1.4,0.3-2.1,0.4s-1.4,0.2-2,0.2v0.4H734v-0.4
		c-0.6,0-1.3-0.1-2-0.2s-1.3-0.3-1.9-0.7c-0.8-0.5-1.3-1-1.7-1.6s-0.7-1.2-0.9-1.8c-0.4-1-0.9-2.3-1.6-3.8c-0.6-1.6-1.4-3.4-2.2-5.4
		s-1.7-4.2-2.7-6.6s-2-4.9-3.1-7.5c-1.1-2.6-2.1-5.3-3.3-8c-1.1-2.7-2.2-5.5-3.3-8.2h-1.2c-1.2,3.1-2.5,6.2-3.8,9.5
		c-1.3,3.3-2.6,6.5-3.9,9.8s-2.6,6.4-3.9,9.6c-1.3,3.1-2.5,6.1-3.6,8.8c-0.5,1.1-1,2.1-1.6,3.1c-0.6,0.9-1.3,1.6-2,2.1
		c-0.6,0.3-1.2,0.6-2,0.7c-0.7,0.2-1.4,0.3-2,0.3v0.1H687.5z M671,298.7v-22h4.3c1.8,0,3.3,0.4,4.5,1.1s2.1,1.6,2.8,2.7
		c0.7,1.1,1.2,2.3,1.5,3.6c0.3,1.3,0.4,2.6,0.4,3.7c0,0.5,0,1.1-0.1,1.9c-0.1,0.7-0.3,1.5-0.5,2.3c-0.3,0.8-0.6,1.6-1.1,2.4
		s-1.1,1.5-1.9,2.2c-0.8,0.6-1.7,1.2-2.8,1.6s-2.4,0.6-3.9,0.6H671V298.7z M657.6,319.5H678v-0.4c-0.4,0-0.8-0.1-1.3-0.1
		s-1-0.1-1.5-0.2s-0.9-0.1-1.3-0.2s-0.7-0.2-0.9-0.2c-0.8-0.3-1.3-0.7-1.6-1.3c-0.3-0.6-0.4-1.2-0.4-1.9v-15.7h5
		c2.1,0,4.1-0.3,6.1-0.9s3.7-1.4,5.3-2.5c1.5-1.1,2.8-2.5,3.7-4.2c0.9-1.7,1.4-3.6,1.4-5.8c0-1.6-0.4-3.1-1.1-4.4s-1.7-2.4-2.9-3.3
		c-1.2-0.9-2.7-1.6-4.3-2c-1.7-0.5-3.4-0.7-5.3-0.7h-21.4v0.5c0.3,0,0.6,0.1,1,0.1s0.8,0.1,1.2,0.2s0.9,0.2,1.3,0.3
		c0.4,0.1,0.9,0.2,1.3,0.3c0.8,0.3,1.3,0.7,1.6,1.3c0.3,0.6,0.4,1.3,0.4,2v34.7c0,0.7-0.1,1.3-0.4,1.9c-0.3,0.6-0.8,1-1.6,1.3
		c-0.2,0.1-0.5,0.2-0.9,0.2c-0.4,0.1-0.8,0.1-1.3,0.2c-0.4,0.1-0.9,0.1-1.3,0.2c-0.4,0-0.8,0.1-1.1,0.1v0.5H657.6z M636.2,319.4
		c-0.6-0.3-1-0.8-1.5-1.5c-0.4-0.7-0.7-1.5-1-2.6c-0.2-1.1-0.4-2.3-0.4-3.8s0.1-3.1,0.4-4.7s0.6-3.2,1.1-4.8
		c0.5-1.6,1.1-3.1,1.8-4.5c0.7-1.4,1.5-2.7,2.3-3.8c0.8-1.1,1.8-1.9,2.7-2.6c1-0.6,2-1,3.1-1c0.6,0,1.1,0.1,1.7,0.4
		c0.5,0.3,1,0.7,1.4,1.4c0.4,0.6,0.7,1.5,1,2.5c0.3,1.1,0.4,2.3,0.4,3.9c0,1.4-0.1,2.9-0.4,4.5c-0.2,1.6-0.6,3.2-1.1,4.8
		c-0.5,1.6-1,3.1-1.7,4.6s-1.4,2.8-2.3,3.9c-0.8,1.1-1.8,2-2.8,2.7s-2.1,1-3.2,1C637.4,319.9,636.8,319.7,636.2,319.4 M642.6,319.5
		c1.6-0.6,3-1.4,4.4-2.4c1.3-1,2.5-2.2,3.5-3.5s1.9-2.7,2.6-4.1c0.7-1.4,1.2-2.8,1.6-4.3c0.4-1.4,0.5-2.7,0.5-3.9
		c0-1.9-0.3-3.6-0.8-5s-1.3-2.6-2.2-3.6c-0.9-1-2-1.7-3.2-2.2s-2.5-0.7-3.8-0.7c-1.7,0-3.4,0.3-4.9,0.9s-2.9,1.4-4.2,2.4
		c-1.3,1-2.5,2.2-3.5,3.5s-1.9,2.7-2.6,4.1s-1.3,2.8-1.7,4.3c-0.4,1.4-0.6,2.8-0.6,4c0,1.9,0.3,3.6,0.8,5c0.6,1.4,1.3,2.6,2.2,3.6
		s2,1.7,3.2,2.1c1.2,0.5,2.4,0.7,3.7,0.7C639.3,320.4,641.1,320.1,642.6,319.5 M617.3,319.5c0.9-0.5,1.8-1.1,2.6-2
		c0.8-0.9,1.5-1.9,2.2-3.1c0.7-1.2,1.3-2.6,1.9-4.1l-0.5-0.1c-0.5,1.4-1.1,2.6-1.8,3.7c-0.6,1.1-1.3,2-2,2.8s-1.4,1.3-2.1,1.7
		c-0.7,0.4-1.5,0.6-2.2,0.6c-0.6,0-1.1-0.2-1.5-0.5c-0.4-0.3-0.6-1-0.6-1.9c0-0.2,0-0.5,0.1-0.8c0.1-0.4,0.2-0.7,0.3-1.2
		c0.1-0.4,0.2-0.9,0.4-1.4c0.1-0.5,0.3-1,0.4-1.5c0.1-0.4,0.2-1,0.5-1.9c0.2-0.9,0.5-1.9,0.9-3c0.3-1.2,0.7-2.4,1.1-3.8
		c0.4-1.4,0.8-2.7,1.2-4.1s0.8-2.7,1.2-3.9c0.4-1.3,0.7-2.4,1-3.4h7.8l0.2-0.9h-7.8l2.9-9.9h-5.6l-2.8,9.9H609l-0.3,0.9h6.1
		c-0.1,0.2-0.2,0.6-0.4,1.2c-0.2,0.6-0.4,1.3-0.7,2.1c-0.3,0.8-0.5,1.8-0.9,2.8c-0.3,1-0.6,2.1-1,3.2c-0.3,1.1-0.7,2.2-1,3.3
		c-0.3,1.1-0.6,2.1-0.9,3s-0.5,1.8-0.7,2.5s-0.4,1.3-0.5,1.6c-0.1,0.4-0.2,0.9-0.4,1.5c-0.2,0.7-0.2,1.4-0.2,2.1
		c0,1,0.2,1.8,0.5,2.4c0.3,0.7,0.8,1.2,1.3,1.6s1.2,0.7,1.9,0.8c0.7,0.2,1.5,0.2,2.3,0.2C615.4,320.2,616.4,320,617.3,319.5
		 M573.4,318c-1.8-1.2-3.4-2.7-4.6-4.7s-2.1-4.3-2.7-7s-0.9-5.5-0.9-8.5c0-3.5,0.3-6.6,1-9.3c0.7-2.7,1.6-5.1,2.9-7s2.8-3.4,4.6-4.4
		c1.8-1,3.8-1.5,6.1-1.5c1.8,0,3.4,0.3,4.8,0.9s2.6,1.4,3.7,2.4s2,2.2,2.8,3.6s1.4,2.9,1.9,4.5s0.8,3.3,1.1,5.1
		c0.2,1.8,0.3,3.6,0.3,5.5c0,3.1-0.3,6-0.9,8.7c-0.6,2.7-1.5,5.1-2.7,7c-1.2,2-2.7,3.5-4.5,4.7c-1.8,1.1-4,1.7-6.5,1.7
		C577.4,319.7,575.2,319.2,573.4,318 M588.5,318.9c2.6-1.1,5-2.6,7-4.5c2.4-2.2,4.1-4.8,5.1-7.7c1-2.9,1.5-6,1.5-9.3
		c0-1.6-0.1-3.1-0.4-4.6s-0.7-2.9-1.2-4.3s-1.2-2.6-1.9-3.8c-0.8-1.2-1.6-2.3-2.5-3.2c-2.4-2.3-5-4-7.7-5.1
		c-2.7-1.1-5.5-1.6-8.6-1.6s-6,0.6-8.8,1.7c-2.7,1.1-5.2,2.8-7.4,5c-4.1,4.1-6.2,9.7-6.2,16.7c0,3.5,0.6,6.6,1.8,9.3
		c1.2,2.7,2.9,5.1,5,7.1c2.1,2,4.4,3.4,7,4.5c2.6,1,5.3,1.5,8.3,1.5C582.9,320.5,585.9,320,588.5,318.9 M525.4,318.4
		c-0.8-0.2-1.5-0.5-2.1-1c-0.5-0.4-1-0.9-1.2-1.5c-0.3-0.6-0.5-1.3-0.5-2.1v-37.1c0.4,0,0.8,0,1.2,0c0.5,0,1,0,1.5,0s1,0,1.5,0
		s0.9,0,1.3,0c2.7,0,5.1,0.5,7.3,1.6s4.1,2.6,5.6,4.5c1.6,1.9,2.8,4.2,3.6,6.8c0.8,2.6,1.3,5.4,1.3,8.5c0,3-0.3,5.8-1,8.4
		c-0.7,2.5-1.7,4.7-3,6.6c-1.3,1.8-3,3.3-5.1,4.3c-2.1,1-4.5,1.5-7.3,1.5C527.2,318.7,526.2,318.6,525.4,318.4 M508,319.5h19.6
		c2.1,0,4.1-0.2,6.1-0.6s4-0.9,5.9-1.7c1.9-0.8,3.6-1.7,5.2-2.9c1.6-1.2,3-2.5,4.2-4.2c1.2-1.6,2.1-3.4,2.8-5.4c0.7-2,1-4.3,1-6.8
		c0-2.9-0.4-5.5-1.2-7.7c-0.8-2.2-1.8-4.2-3.1-5.8c-1.3-1.6-2.8-3-4.4-4.1c-1.7-1.1-3.4-2-5.1-2.7c-1.8-0.7-3.5-1.1-5.3-1.4
		c-1.7-0.3-3.3-0.4-4.8-0.4h-20.6v0.5c0.6,0,1.3,0.1,2.1,0.2c0.8,0.1,1.6,0.3,2.4,0.6c0.8,0.3,1.3,0.8,1.6,1.5
		c0.3,0.6,0.4,1.3,0.4,2v34.7c0,0.7-0.1,1.3-0.4,1.9c-0.3,0.5-0.8,1-1.6,1.2c-0.2,0.1-0.5,0.2-0.9,0.2c-0.4,0.1-0.8,0.1-1.3,0.2
		s-0.9,0.1-1.4,0.2c-0.5,0-0.8,0.1-1.2,0.1L508,319.5L508,319.5z M478.8,318.4c-0.8-0.2-1.5-0.5-2.1-1c-0.5-0.4-1-0.9-1.2-1.5
		c-0.3-0.6-0.5-1.3-0.5-2.1v-37.1c0.4,0,0.8,0,1.2,0c0.5,0,1,0,1.5,0s1,0,1.5,0s0.9,0,1.3,0c2.7,0,5.1,0.5,7.3,1.6
		c2.2,1.1,4.1,2.6,5.6,4.5c1.6,1.9,2.8,4.2,3.6,6.8c0.8,2.6,1.3,5.4,1.3,8.5c0,3-0.3,5.8-1,8.4c-0.7,2.5-1.7,4.7-3,6.6
		c-1.3,1.8-3,3.3-5.1,4.3s-4.5,1.5-7.3,1.5C480.7,318.7,479.6,318.6,478.8,318.4 M461.4,319.5H481c2.1,0,4.1-0.2,6.1-0.6
		s4-0.9,5.9-1.7c1.9-0.8,3.6-1.7,5.2-2.9c1.6-1.2,3-2.5,4.2-4.2c1.2-1.6,2.1-3.4,2.8-5.4c0.7-2,1-4.3,1-6.8c0-2.9-0.4-5.5-1.2-7.7
		c-0.8-2.2-1.8-4.2-3.1-5.8c-1.3-1.6-2.8-3-4.4-4.1c-1.7-1.1-3.4-2-5.1-2.7c-1.8-0.7-3.5-1.1-5.3-1.4c-1.7-0.3-3.3-0.4-4.8-0.4
		h-20.6v0.5c0.6,0,1.3,0.1,2.1,0.2s1.6,0.3,2.4,0.6c0.8,0.3,1.3,0.8,1.6,1.5c0.3,0.6,0.4,1.3,0.4,2v34.7c0,0.7-0.1,1.3-0.4,1.9
		c-0.3,0.5-0.8,1-1.6,1.2c-0.2,0.1-0.5,0.2-0.9,0.2c-0.4,0.1-0.8,0.1-1.3,0.2s-0.9,0.1-1.4,0.2c-0.5,0-0.8,0.1-1.2,0.1L461.4,319.5
		L461.4,319.5z M426.6,302.5l7.5-19.2l7.6,19.2H426.6z M413.7,319.5H430v-0.4c-0.6,0-1.3-0.1-2.2-0.2c-0.9-0.1-1.7-0.2-2.6-0.4
		c-0.8-0.2-1.5-0.5-2.2-0.8c-0.6-0.4-0.9-0.8-0.9-1.4c0-0.5,0.1-1,0.3-1.7c0.2-0.7,0.4-1.4,0.6-2.1c0.1-0.5,0.3-1.1,0.6-1.8
		c0.2-0.7,0.5-1.5,0.8-2.3s0.6-1.7,0.9-2.5c0.3-0.9,0.6-1.6,0.9-2.4h15.9l4.6,11.7c0.1,0.2,0.2,0.5,0.2,0.9c0.1,0.3,0.1,0.6,0,0.9
		c-0.1,0.4-0.4,0.7-0.9,1s-1.1,0.5-1.8,0.7s-1.4,0.3-2.1,0.4c-0.7,0.1-1.4,0.2-2,0.2v0.4h20.1v-0.4c-0.6,0-1.3-0.1-2-0.2
		s-1.4-0.3-1.9-0.7c-0.8-0.5-1.3-1-1.7-1.6c-0.4-0.6-0.7-1.2-0.9-1.8c-0.4-1-0.9-2.3-1.6-3.8c-0.6-1.6-1.4-3.4-2.2-5.4
		s-1.7-4.2-2.7-6.6s-2-4.9-3.1-7.5c-1.1-2.6-2.1-5.3-3.3-8c-1.1-2.7-2.2-5.5-3.3-8.2h-1.2c-1.2,3.1-2.5,6.2-3.8,9.5
		c-1.3,3.3-2.6,6.5-3.9,9.8c-1.3,3.3-2.6,6.4-3.9,9.6c-1.3,3.1-2.5,6.1-3.6,8.8c-0.5,1.1-1,2.1-1.6,3.1c-0.6,0.9-1.3,1.6-2,2.1
		c-0.6,0.3-1.2,0.6-2,0.7c-0.7,0.2-1.4,0.3-2,0.3v0.1H413.7z M397.5,298.7v-22h4.3c1.8,0,3.3,0.4,4.5,1.1c1.2,0.7,2.1,1.6,2.8,2.7
		s1.2,2.3,1.5,3.6c0.3,1.3,0.4,2.6,0.4,3.7c0,0.5,0,1.1-0.1,1.9c-0.1,0.7-0.3,1.5-0.5,2.3c-0.3,0.8-0.6,1.6-1.1,2.4
		s-1.1,1.5-1.9,2.2c-0.8,0.6-1.7,1.2-2.8,1.6c-1.1,0.4-2.4,0.6-3.9,0.6h-3.2V298.7z M384.1,319.5h20.4v-0.4c-0.4,0-0.8-0.1-1.3-0.1
		s-1-0.1-1.5-0.2s-0.9-0.1-1.3-0.2s-0.7-0.2-0.9-0.2c-0.8-0.3-1.3-0.7-1.6-1.3c-0.3-0.6-0.4-1.2-0.4-1.9v-15.7h5
		c2.1,0,4.1-0.3,6.1-0.9s3.7-1.4,5.3-2.5c1.5-1.1,2.8-2.5,3.7-4.2s1.4-3.6,1.4-5.8c0-1.6-0.4-3.1-1.1-4.4c-0.7-1.3-1.7-2.4-2.9-3.3
		s-2.7-1.6-4.3-2c-1.7-0.5-3.4-0.7-5.3-0.7H384v0.5c0.3,0,0.6,0.1,1,0.1s0.8,0.1,1.2,0.2c0.4,0.1,0.9,0.2,1.3,0.3
		c0.4,0.1,0.9,0.2,1.3,0.3c0.8,0.3,1.3,0.7,1.6,1.3c0.3,0.6,0.4,1.3,0.4,2v34.7c0,0.7-0.1,1.3-0.4,1.9c-0.3,0.6-0.8,1-1.6,1.3
		c-0.2,0.1-0.5,0.2-0.9,0.2c-0.4,0.1-0.8,0.1-1.3,0.2c-0.4,0.1-0.9,0.1-1.3,0.2c-0.4,0-0.8,0.1-1.1,0.1v0.5"/>
</g>
</svg>
