<?xml version="1.0" encoding="utf-8"?>
<!-- Generator: Adobe Illustrator 19.1.0, SVG Export Plug-In . SVG Version: 6.00 Build 0)  -->
<svg version="1.1" id="Layer_1" xmlns="http://www.w3.org/2000/svg" xmlns:xlink="http://www.w3.org/1999/xlink" x="0px" y="0px"
	 viewBox="0 0 736 188.6" style="enable-background:new 0 0 736 188.6;" xml:space="preserve">
<g>
	<g>
		<path d="M0,0h48.7v16.8H20.1v155h28.6v16.8H0V0z"/>
	</g>
</g>
<g>
	<g>
		<path d="M736,188.6h-48.7v-16.8h28.6v-155h-28.6V0H736V188.6z"/>
	</g>
</g>
<g>
	<g>
		<path d="M168.8,25.8h22.5v2.9h-9.7v27.8h-3V28.7h-9.8V25.8z"/>
	</g>
	<g>
		<path d="M197,25.8h3v13h16.3v-13h3v30.8h-3V41.8H200v14.7h-3V25.8z"/>
	</g>
	<g>
		<path d="M228,25.8h18.1v2.9H231v10.1h11.3v3H231v11.8h16.6v3H228V25.8z"/>
	</g>
</g>
<g>
	<g>
		<path d="M80.7,155.7V70.9h19.4c10,0,17.7,2.5,23.2,7.4c5.6,5,8.3,11.9,8.3,20.8c0,8.4-2.6,15.3-7.8,20.8
			c-5.2,5.4-11.9,8.1-19.9,8.1c-3.6,0-7.5-0.8-11.9-2.4v30.1H80.7z M99.9,81.3H92v34.5c3.4,1.7,7,2.6,10.7,2.6
			c5.2,0,9.4-1.8,12.7-5.4c3.3-3.6,5-8.3,5-14c0-3.7-0.8-6.9-2.3-9.7c-1.5-2.8-3.7-4.8-6.4-6.1C109,82,105.1,81.3,99.9,81.3z"/>
		<path d="M81.8,155.7V70.9L80.7,72h19.4c9.6,0,17.2,2.4,22.5,7.2c5.3,4.7,7.9,11.5,7.9,20c0,8.1-2.5,14.8-7.5,20
			c-5,5.2-11.3,7.8-19.2,7.8c-3.4,0-7.3-0.8-11.5-2.3l-1.5-0.5v1.6v30.1l1.1-1.1H80.7L81.8,155.7z M93.1,155.7v-30.1l-1.5,1
			c4.4,1.6,8.6,2.4,12.3,2.4c8.4,0,15.3-2.8,20.7-8.5c5.4-5.6,8.1-12.8,8.1-21.5c0-9.2-2.9-16.5-8.7-21.6c-5.7-5.1-13.8-7.7-24-7.7
			H80.7h-1.1v1.1v84.8v1.1h1.1H92h1.1V155.7z"/>
		<path d="M99.9,80.2H92h-1.1v1.1v34.5v0.7l0.6,0.3c3.6,1.8,7.3,2.7,11.2,2.7c5.5,0,10-2,13.6-5.8c3.5-3.8,5.3-8.8,5.3-14.7
			c0-3.8-0.8-7.3-2.5-10.2c-1.7-3-4-5.2-6.9-6.6C109.3,80.9,105.3,80.2,99.9,80.2z M111.3,84.2c2.5,1.2,4.5,3.1,5.9,5.7
			c1.5,2.6,2.2,5.7,2.2,9.2c0,5.4-1.6,9.8-4.7,13.2c-3.1,3.4-7,5.1-11.9,5.1c-3.6,0-7-0.8-10.2-2.5l0.6,1V81.3L92,82.4h7.9
			C104.9,82.4,108.7,83,111.3,84.2z"/>
	</g>
	<g>
		<path d="M143.6,41.9h11v36.4c4.6-5.6,10.4-8.5,17.3-8.5c3.8,0,7.1,0.9,10.1,2.8c3,1.9,5.2,4.5,6.6,7.7c1.4,3.3,2.2,8.2,2.2,14.7
			v32h-11V92.3c0-4.1-1-7.4-3-9.9c-2-2.5-4.7-3.7-8-3.7c-2.4,0-4.7,0.6-6.9,1.9c-2.2,1.3-4.5,3.4-7.2,6.3V127h-11V41.9z"/>
		<path d="M143.6,43h11l-1.1-1.1v36.4v3.1l1.9-2.4c4.5-5.4,9.8-8.1,16.4-8.1c3.5,0,6.7,0.9,9.5,2.6c2.8,1.7,4.8,4.2,6.2,7.3
			c1.4,3.1,2.1,7.9,2.1,14.2v32l1.1-1.1h-11l1.1,1.1V92.3c0-4.3-1.1-7.9-3.3-10.6c-2.2-2.8-5.2-4.2-8.8-4.2c-2.6,0-5.1,0.7-7.5,2
			c-2.3,1.3-4.7,3.5-7.4,6.5l-0.3,0.3v0.4V127l1.1-1.1h-11l1.1,1.1V41.9L143.6,43z M143.6,128.1h11h1.1V127V86.8l-0.3,0.7
			c2.5-2.8,4.8-4.9,6.9-6.1c2-1.2,4.1-1.8,6.3-1.8c3,0,5.3,1.1,7.1,3.4c1.8,2.3,2.8,5.4,2.8,9.2V127v1.1h1.1h11h1.1V127V95
			c0-6.6-0.8-11.7-2.3-15.1c-1.5-3.5-3.9-6.3-7-8.2c-3.1-2-6.7-3-10.7-3c-7.2,0-13.3,3-18.1,8.9l1.9,0.7V41.9v-1.1h-1.1h-11h-1.1
			v1.1V127v1.1H143.6z"/>
	</g>
	<g>
		<path d="M233.1,70.8c8.5,0,15.6,2.8,21.3,8.3c5.7,5.5,8.5,12.4,8.5,20.8c0,8.1-2.9,14.8-8.6,20.2c-5.7,5.3-12.9,8-21.6,8
			c-8.4,0-15.4-2.7-21.1-8.1c-5.6-5.4-8.5-12.2-8.5-20.3c0-8.2,2.8-15.1,8.6-20.5C217.3,73.6,224.5,70.8,233.1,70.8z M232.5,80.9
			c-5.3,0-9.7,1.7-13.1,5.2c-3.4,3.5-5.1,7.9-5.1,13.3c0,5.4,1.7,9.7,5.2,13.1c3.5,3.4,8,5.1,13.5,5.1c5.4,0,9.9-1.7,13.4-5.1
			c3.5-3.4,5.2-7.8,5.2-13.2c0-5.3-1.8-9.7-5.4-13.2C242.5,82.6,238,80.9,232.5,80.9z"/>
		<path d="M233.1,71.9c8.2,0,15.1,2.7,20.5,7.9c5.4,5.3,8.1,12,8.1,20c0,7.7-2.8,14.3-8.3,19.4c-5.5,5.1-12.5,7.7-20.9,7.7
			c-8.1,0-14.9-2.6-20.3-7.8c-5.4-5.2-8.1-11.8-8.1-19.5c0-7.9,2.8-14.5,8.2-19.7C217.8,74.6,224.8,71.9,233.1,71.9z M210.8,78.2
			c-5.9,5.7-8.9,12.8-8.9,21.3c0,8.4,3,15.5,8.8,21.1c5.9,5.6,13.2,8.4,21.9,8.4c9,0,16.5-2.8,22.4-8.3c5.9-5.6,8.9-12.6,8.9-21
			c0-8.6-3-15.8-8.8-21.6c-5.9-5.7-13.3-8.6-22.1-8.6C224.2,69.7,216.7,72.6,210.8,78.2z"/>
		<path d="M232.5,79.8c-5.6,0-10.3,1.9-13.9,5.6c-3.6,3.7-5.4,8.4-5.4,14.1c0,5.7,1.9,10.3,5.6,13.9c3.7,3.6,8.5,5.4,14.2,5.4
			c5.7,0,10.5-1.8,14.2-5.5c3.7-3.6,5.5-8.3,5.5-14c0-5.6-2-10.3-5.8-14C243.1,81.6,238.3,79.8,232.5,79.8z M245.4,86.9
			c3.4,3.3,5.1,7.4,5.1,12.4c0,5-1.6,9.2-4.9,12.4c-3.3,3.2-7.4,4.8-12.6,4.8c-5.2,0-9.4-1.6-12.7-4.8c-3.3-3.1-4.9-7.3-4.9-12.3
			c0-5.1,1.6-9.3,4.8-12.5c3.2-3.3,7.3-4.9,12.3-4.9C237.7,82,242,83.6,245.4,86.9z"/>
	</g>
	<g>
		<path d="M267.2,79.8L288,59.3v11.6h17.8v10H288v27.4c0,6.4,2.7,9.6,8,9.6c4,0,8.2-1.3,12.7-3.9v10.4c-4.3,2.4-8.9,3.6-14,3.6
			c-5.1,0-9.3-1.5-12.7-4.4c-1.1-0.9-1.9-1.9-2.6-3c-0.7-1.1-1.3-2.6-1.7-4.4c-0.5-1.8-0.7-5.3-0.7-10.3V80.9h-9.8V79.8z"/>
		<path d="M268,80.6l20.8-20.5l-1.9-0.8v11.6V72h1.1h17.8l-1.1-1.1v10l1.1-1.1H288h-1.1v1.1v27.4c0,8.9,5,10.7,9.1,10.7
			c4.2,0,8.6-1.4,13.2-4.1l-1.7-1v10.4l0.6-1c-4.1,2.3-8.6,3.4-13.5,3.4c-4.8,0-8.8-1.4-12-4.2c-1-0.8-1.8-1.8-2.4-2.8
			c-0.6-1-1.2-2.4-1.6-4.1c-0.4-1.7-0.7-5.1-0.7-10.1V80.9v-1.1H277h-9.8l1.1,1.1v-1.1L268,80.6z M267.2,82h9.8l-1.1-1.1v24.9
			c0,5.3,0.2,8.7,0.7,10.6c0.5,1.9,1.1,3.5,1.9,4.7c0.7,1.2,1.7,2.3,2.8,3.3c3.5,3.1,8.1,4.7,13.4,4.7c5.2,0,10.1-1.2,14.5-3.7
			l0.6-0.3v-0.7v-10.4v-1.9l-1.7,1c-4.3,2.5-8.3,3.7-12.1,3.7c-3,0-6.9-0.9-6.9-8.5V80.9L288,82h17.8h1.1v-1.1v-10v-1.1h-1.1H288
			l1.1,1.1V59.3v-2.6l-1.9,1.8l-20.8,20.5l-0.3,0.3v0.5v1.1V82H267.2z"/>
	</g>
	<g>
		<path d="M343.5,70.8c8.5,0,15.6,2.8,21.3,8.3c5.7,5.5,8.5,12.4,8.5,20.8c0,8.1-2.8,14.8-8.6,20.2c-5.7,5.3-12.9,8-21.6,8
			c-8.4,0-15.5-2.7-21.1-8.1c-5.7-5.4-8.5-12.2-8.5-20.3c0-8.2,2.9-15.1,8.6-20.5C327.7,73.6,334.9,70.8,343.5,70.8z M342.9,80.9
			c-5.3,0-9.7,1.7-13.1,5.2c-3.4,3.5-5.1,7.9-5.1,13.3c0,5.4,1.7,9.7,5.2,13.1c3.5,3.4,8,5.1,13.5,5.1c5.5,0,9.9-1.7,13.4-5.1
			c3.5-3.4,5.2-7.8,5.2-13.2c0-5.3-1.8-9.7-5.4-13.2C353,82.6,348.4,80.9,342.9,80.9z"/>
		<path d="M343.5,71.9c8.2,0,15.1,2.7,20.5,7.9c5.4,5.3,8.1,12,8.1,20c0,7.7-2.8,14.3-8.3,19.4c-5.5,5.1-12.5,7.7-20.9,7.7
			c-8.1,0-14.9-2.6-20.3-7.8c-5.4-5.2-8.1-11.8-8.1-19.5c0-7.9,2.7-14.5,8.2-19.7C328.2,74.6,335.2,71.9,343.5,71.9z M321.2,78.2
			c-5.9,5.7-8.9,12.8-8.9,21.3c0,8.4,3,15.5,8.8,21.1c5.8,5.6,13.2,8.4,21.8,8.4c8.9,0,16.5-2.8,22.4-8.3c5.9-5.6,8.9-12.6,8.9-21
			c0-8.6-3-15.8-8.8-21.6c-5.8-5.7-13.3-8.6-22-8.6C334.6,69.7,327.1,72.6,321.2,78.2z"/>
		<path d="M342.9,79.8c-5.6,0-10.3,1.9-13.9,5.6c-3.6,3.7-5.4,8.4-5.4,14.1c0,5.7,1.9,10.3,5.6,13.9c3.7,3.6,8.5,5.4,14.2,5.4
			c5.7,0,10.5-1.8,14.2-5.5c3.7-3.6,5.5-8.3,5.5-14c0-5.6-1.9-10.3-5.8-14C353.5,81.6,348.7,79.8,342.9,79.8z M355.8,86.9
			c3.4,3.3,5.1,7.4,5.1,12.4c0,5.1-1.6,9.2-4.9,12.4c-3.2,3.2-7.5,4.8-12.6,4.8c-5.2,0-9.4-1.6-12.7-4.8c-3.2-3.1-4.9-7.3-4.9-12.3
			c0-5.1,1.6-9.3,4.8-12.5c3.2-3.3,7.3-4.9,12.3-4.9C348.2,82,352.4,83.6,355.8,86.9z"/>
	</g>
</g>
<g>
	<g>
		<path d="M399.7,110.9c0.6,2.2,1.3,3.9,2,5.1c1.2,1.9,2.9,3.5,5,4.7c2.1,1.2,4.5,1.8,7.5,1.8c4.1,0,7.3-1.1,9.6-3.1
			c2.3-2.1,3.5-4.6,3.5-7.5c0-2.6-1.1-4.8-3.2-6.7c-1.6-1.4-4.9-2.8-9.8-4.2c-6.6-1.9-11.4-4.1-14.2-6.7c-2.8-2.5-4.3-5.6-4.3-9.3
			c0-4.1,1.6-7.5,4.8-10.5c3.2-2.9,7.3-4.4,12.4-4.4c3.1,0,6.1,0.6,8.8,1.7c2.7,1.2,5.1,2.9,6.9,5.2c1.3,1.6,2.3,3.7,3,6.3l-5.6,1.7
			c-1-3.3-2.6-5.8-4.9-7.5c-2.3-1.7-5.1-2.6-8.3-2.6c-3.4,0-6.2,0.9-8.2,2.8c-2.1,1.9-3.1,4.1-3.1,6.6c0,2.1,0.9,4,2.5,5.7
			c1.7,1.7,5.4,3.4,11,5c6.7,1.9,11.4,4.2,14,6.7c2.5,2.6,3.8,5.8,3.8,9.7c0,4.4-1.7,8.2-5.2,11.3c-3.5,3.1-8,4.7-13.8,4.7
			c-3.6,0-6.9-0.7-9.8-2.1c-3-1.4-5.4-3.4-7.3-5.9c-1.3-1.7-2.3-4-3.1-7L399.7,110.9z"/>
	</g>
	<g>
		<path d="M440.8,71.2h40.4v5.3h-17.5v49.9h-5.3V76.5h-17.6V71.2z"/>
	</g>
	<g>
		<path d="M491.1,71.2h5.4v36.1c0,4.5,1.3,8.1,3.9,10.7c2.6,2.6,6.1,3.9,10.5,3.9c3.5,0,6.3-0.6,8.5-1.8c2.2-1.2,3.8-2.9,4.9-5.3
			c1.1-2.3,1.6-4.9,1.6-7.6V71.2h5.4v36.1c0,6.2-1.8,11.1-5.4,14.7c-3.6,3.6-8.4,5.5-14.5,5.5c-4.8,0-8.9-1-12-3.1
			c-3.2-2-5.4-4.6-6.6-7.7c-1.2-3.1-1.8-6-1.8-8.6V71.2z"/>
	</g>
	<g>
		<path d="M546.8,71.2h15.8c8.1,0,14.4,2.4,19.1,7.2c4.7,4.8,7,11.4,7,19.9c0,4.3-0.6,8.3-1.7,12c-0.9,2.8-2.1,5.1-3.6,7.1
			c-1.5,2-3.3,3.7-5.3,5c-1.4,0.9-3.1,1.8-5.1,2.4c-3.2,1.1-7.3,1.6-12.3,1.6h-13.9V71.2z M552.1,76v45.5h11.7
			c4.6,0,8.7-1.5,12.2-4.4c4.5-3.7,6.7-9.8,6.7-18.2c0-8.6-2.3-14.8-6.9-18.6c-3.4-2.8-7.7-4.2-12.8-4.2H552.1z"/>
	</g>
	<g>
		<path d="M602.6,71.2h5.3v55.2h-5.3V71.2z"/>
	</g>
	<g>
		<path d="M644.7,127.4c-6.4,0-11.7-2.3-15.8-7c-4.9-5.5-7.3-12.6-7.3-21.2c0-5.5,1-10.5,2.9-15.2c2-4.7,4.8-8.2,8.4-10.4
			c3.6-2.3,7.6-3.4,11.8-3.4c3.7,0,7.1,0.8,10,2.5c2.9,1.7,5.3,3.8,7.1,6.5c1.9,2.7,3.3,5.7,4.2,9c1,3.4,1.4,7,1.4,10.8
			c0,4.2-0.5,7.8-1.5,10.9c-1,3.1-2.3,5.7-3.7,7.8c-1.4,2.1-2.9,3.8-4.4,5c-1.9,1.6-4.1,2.8-6.6,3.6
			C648.8,127,646.6,127.4,644.7,127.4z M644.1,122.4c4.7,0,8.8-2,12.2-6c3.4-4,5.1-9.7,5.1-17.4c0-8-1.9-14.4-5.6-18.9
			c-2.9-3.6-6.7-5.3-11.4-5.3c-4.6,0-8.5,2-11.8,6c-3.3,4-5,10-5,18c0,7.9,1.6,13.7,4.9,17.7C635.8,120.5,639.7,122.4,644.1,122.4z"
			/>
	</g>
</g>
</svg>
